inDegrees=no
num_controls=7
num_derivatives=13
num_iterations=181
num_multipliers=7
num_parameters=0
num_slacks=7
num_states=26
objective=5.933135
objective_accelerations=0.783934
objective_balance=0.012665
objective_effort=0.526744
objective_height=4.539795
objective_ligament=0.069997
solver_duration=1516.226457
status=Solve_Succeeded
success=true
DataType=double
version=3
OpenSimVersion=4.4-2022-07-23-0e9fedc
endheader
time	/jointset/ground_pelvis/pelvis_tilt/value	/jointset/ground_pelvis/pelvis_tx/value	/jointset/ground_pelvis/pelvis_ty/value	/jointset/hip_r/hip_flexion_r/value	/jointset/hip_r/hip_adduction_r/value	/jointset/hip_r/hip_rotation_r/value	/jointset/back/lumbar_extension/value	/jointset/patellofemoral_r/patellar_flexion_r/value	/jointset/knee_r/knee_flexion_r/value	/jointset/knee_r/knee_adduction_r/value	/jointset/knee_r/knee_rotation_r/value	/jointset/ankle_r/ankle_angle_r/value	/jointset/subtalar_r/subtalar_angle_r/value	/jointset/ground_pelvis/pelvis_tilt/speed	/jointset/ground_pelvis/pelvis_tx/speed	/jointset/ground_pelvis/pelvis_ty/speed	/jointset/hip_r/hip_flexion_r/speed	/jointset/hip_r/hip_adduction_r/speed	/jointset/hip_r/hip_rotation_r/speed	/jointset/back/lumbar_extension/speed	/jointset/patellofemoral_r/patellar_flexion_r/speed	/jointset/knee_r/knee_flexion_r/speed	/jointset/knee_r/knee_adduction_r/speed	/jointset/knee_r/knee_rotation_r/speed	/jointset/ankle_r/ankle_angle_r/speed	/jointset/subtalar_r/subtalar_angle_r/speed	/forceset/tau_hip_flexion_r	/forceset/tau_hip_adduction_r	/forceset/tau_hip_rotation_r	/forceset/tau_knee_flexion_r	/forceset/tau_ankle_angle_r	/forceset/tau_subtalar_angle_r	/forceset/tau_lumbar_extension	lambda_cid13_p0	lambda_cid14_p0	lambda_cid14_p1	lambda_cid14_p2	lambda_cid14_p3	lambda_cid14_p4	lambda_cid14_p5	/jointset/ground_pelvis/pelvis_tilt/accel	/jointset/ground_pelvis/pelvis_tx/accel	/jointset/ground_pelvis/pelvis_ty/accel	/jointset/hip_r/hip_flexion_r/accel	/jointset/hip_r/hip_adduction_r/accel	/jointset/hip_r/hip_rotation_r/accel	/jointset/back/lumbar_extension/accel	/jointset/patellofemoral_r/patellar_flexion_r/accel	/jointset/knee_r/knee_flexion_r/accel	/jointset/knee_r/knee_adduction_r/accel	/jointset/knee_r/knee_rotation_r/accel	/jointset/ankle_r/ankle_angle_r/accel	/jointset/subtalar_r/subtalar_angle_r/accel	gamma_cid13_p0	gamma_cid14_p0	gamma_cid14_p1	gamma_cid14_p2	gamma_cid14_p3	gamma_cid14_p4	gamma_cid14_p5
1	-0.2699236908994421	-0.02980064283601672	0.5650893240996491	1.641845101622782	-0.2433413036733168	-0.04081549230349408	-0.7853903966121123	1.686320350582681	1.686320350582682	-0.1745316722949445	0.1745287826869699	0.436215012102892	0.1651236248524791	0.06829616374078974	0.003930898865514156	0.01668255483437059	-0.1012965602511504	-0.0008791053232304678	-0.004051290034918367	-8.062501186356477e-05	-0.01903767640932357	-0.01903767640932565	0.001920519700594915	-0.0007476200809643174	0.01408694887690553	0.005443511704744598	-0.3663881019233082	0.008199728151929363	0.003176075785086222	-0.5014176939792323	-0.005175259900120964	0.008186956363438334	0.379119680416706	-0.03897764630302173	-54.59011128884263	-9.072697942846489	5.375002520552995	12.12674822458327	-791.4678632647598	78.26718828826809	1.125535626018002	0.02945786084979764	2.221877694621846	-6.254716061517523	0.2279758988506034	-1.200826909193905	-0.02236181540476434	-5.802813493210913	-5.802813493210924	0.3207210774630907	-0.05651777627898574	-0.8273786891298385	0.04865145794205295	2.492417291886234e-10	8.221926391455822e-10	3.113257967969415e-11	4.804950464313203e-09	-1.908991409448837e-09	-4.507165508276778e-09	-4.648363070713682e-09
1.01	-0.2691850188778629	-0.0297598175306135	0.5653671146375234	1.640520145141566	-0.2433385289124319	-0.04091282058120924	-0.785391652101902	1.685840211790755	1.685840211790746	-0.174493426968439	0.1745181042933526	0.4363145428865245	0.1651807412806168	0.07943593257727879	0.0042415499099266	0.03887232846012093	-0.1636882961347057	0.001428730771179782	-0.01533723809877992	-0.0001648015409325567	-0.07698323023002158	-0.07698323023002217	0.005813144720376726	-0.001372154409288378	0.005816087343834752	0.005965949674348381	-0.3657309656258389	0.008063697643762489	0.003274464821619157	-0.5018595929077526	-0.004489492133438289	0.008200634160719443	0.3787898873220858	-0.03898233324313564	-54.35379971818011	-9.026517628281203	5.368938335078516	11.89171996358077	-791.3136199933579	78.40990239906026	1.107852440124688	0.03297545606357002	2.217041151148006	-6.230435395941409	0.2313930712226469	-1.080909109441312	-0.0005948593666081103	-5.789399433435198	-5.789399433435199	0.436222815645358	-0.0630264346462759	-0.8274078568581369	0.05197491501838582	4.304609858514421e-09	7.237029118918458e-09	2.956613733386299e-08	3.329908191436717e-08	-7.073229424126799e-09	-1.194195320698143e-08	6.114078697629929e-08
1.02	-0.2683350181823752	-0.02971566436880217	0.5658667057025747	1.638571464692675	-0.2433128346692967	-0.04112069441062241	-0.7853935792143514	1.684780822839235	1.684780822839265	-0.1744137174715347	0.1745016595215645	0.436331271460396	0.1652426690781592	0.09056189852019304	0.004596470147133394	0.06104266026975706	-0.2260413537849472	0.0037047911251408	-0.02616040034104451	-0.0002149495783082124	-0.1348877083281546	-0.1348877083281533	0.01021335379658244	-0.00190089567904413	-0.002473493047733673	0.006405785585858035	-0.3650738293283775	0.007927667135203291	0.003372853858732591	-0.5023014918362344	-0.003803724366862128	0.008214311957198727	0.3784600942274403	-0.03899815732067626	-54.12396122851622	-8.980307226057784	5.361540018379187	11.66952510525685	-791.2524898123348	78.5655568553953	1.122775047302827	0.0383116994089091	2.217989331399028	-6.246980414854904	0.2216207507603268	-1.108269744874795	-0.0155561170646438	-5.794598348697798	-5.794598348697748	0.4222378887480635	-0.03735916456444702	-0.8311224608289544	0.03213104632264478	1.267603974038379e-08	2.036322977400969e-08	7.262818580100162e-08	8.797857716528568e-08	-1.865050705606654e-08	-2.12138265942652e-08	1.81743951613298e-07
1.03	-0.2673737271645252	-0.02966777115525332	0.566587789629195	1.635999726728289	-0.243264516227087	-0.04143449991650155	-0.7853958116373613	1.683142722996088	1.683142722996056	-0.1742875450152668	0.1744804330629002	0.4362647626632441	0.1653084982772529	0.101703374200596	0.004986478849645654	0.08315965391781574	-0.2882720153021515	0.00595864181451763	-0.03653485313297807	-0.000222842764691157	-0.192713326408412	-0.1927133264084106	0.01508439838514125	-0.002333541932380474	-0.01085505601101779	0.006743974637468163	-0.3643640104449755	0.007890130546489968	0.003509414267335865	-0.5020975381937539	-0.003648358011834111	0.008284497764054384	0.3780421263219569	-0.03902675844022234	-54.03614699860534	-8.919762152569206	5.335110725722592	11.65220247127202	-790.7634232556857	78.66679235794896	1.110899482223104	0.03998526923088058	2.206377553779358	-6.205970409372664	0.2272465027363689	-0.992147335496835	0.007897914797709855	-5.773707723235896	-5.773707723236341	0.5290196830630272	-0.04454879631050573	-0.8456904466978944	0.03228600175868465	2.109151106870771e-08	3.355791373701236e-08	1.158282653264358e-07	1.429252700060091e-07	-3.02932238677743e-08	-3.050444575388142e-08	3.029064429297868e-07
